<?xml version="1.0" encoding="iso-8859-1"?>
<!-- Uploaded to: SVG Repo, www.svgrepo.com, Generator: SVG Repo Mixer Tools -->
<svg height="800px" width="800px" version="1.1" id="Layer_1" xmlns="http://www.w3.org/2000/svg" xmlns:xlink="http://www.w3.org/1999/xlink" 
	 viewBox="0 0 512 512" xml:space="preserve">
<g>
	<path style="fill:#4D3D36;" d="M155.517,156.978c-4.585,0-8.303,3.716-8.303,8.303v97.712h16.605V165.28
		C163.82,160.694,160.102,156.978,155.517,156.978z"/>
	<path style="fill:#4D3D36;" d="M355.955,0c-4.585,0-8.303,3.716-8.303,8.303v86.641h16.605V8.303
		C364.258,3.716,360.541,0,355.955,0z"/>
</g>
<path style="fill:#9CAC74;" d="M440.193,242.24v-74.138c0-45.953-36.809-83.304-82.551-84.2l-0.199,428.087
	c81.068-0.797,146.548-66.765,146.548-148.021C503.99,313.51,478.739,268.963,440.193,242.24z"/>
<path style="fill:#BCC987;" d="M421.284,242.24c29.901,26.724,49.495,71.27,49.495,121.729c0,81.112-50.613,146.991-113.337,148.021
	C356.944,512,356.457,512,355.959,512c-43.13,0-81.953-18.454-109.009-47.89l24.786-221.693c0-0.011,0-74.315,0-74.315
	c0-46.517,37.705-84.223,84.223-84.223c0.565,0,1.129,0.011,1.683,0.022c35.303,1.162,63.643,38.414,63.643,84.2L421.284,242.24
	L421.284,242.24z"/>
<path style="fill:#D35B38;" d="M271.736,242.417c-7.129-6.155-15.321-11.281-24.487-15.078c-13.672-5.657-27.952-7.716-41.757-6.587
	l-18.498,291.048c22.495,1.959,44.613-10.661,53.702-32.624l6.255-15.067l49.185-118.751
	C311.434,308.429,300.43,267.17,271.736,242.417z"/>
<path style="fill:#E86F22;" d="M245.566,242.417c22.229,24.753,30.764,66.012,18.908,102.942L226.359,464.11l-4.838,15.067
	c-6.089,18.974-19.705,30.975-34.528,32.624c-5.281-0.465-10.572-1.727-15.731-3.864c-5.978-2.469-11.27-5.911-15.742-10.052
	c-4.495,4.14-9.764,7.583-15.742,10.052c-27.122,11.236-58.219-1.638-69.455-28.761L14.906,345.359
	c-19.085-46.086,2.801-98.924,48.886-118.02c31.794-13.163,66.798-6.819,91.728,13.517c14.203-11.58,31.683-18.631,49.971-20.104
	c7.085,0.742,14.192,2.9,21.111,6.587C233.699,231.136,240.053,236.262,245.566,242.417z"/>
<g>
	<circle style="fill:#9CAC74;" cx="416.308" cy="328.234" r="8.303"/>
	<circle style="fill:#9CAC74;" cx="322.211" cy="428.419" r="8.303"/>
	<circle style="fill:#9CAC74;" cx="355.422" cy="450.56" r="8.303"/>
</g>
<g>
	<circle style="fill:#D35B38;" cx="114.832" cy="376.755" r="8.303"/>
	<circle style="fill:#D35B38;" cx="81.621" cy="354.614" r="8.303"/>
</g>
</svg>